<?xml version="1.0" standalone="no"?>
<!DOCTYPE svg PUBLIC "-//W3C//DTD SVG 20010904//EN"
 "http://www.w3.org/TR/2001/REC-SVG-20010904/DTD/svg10.dtd">
<svg version="1.0" xmlns="http://www.w3.org/2000/svg"
 width="1161.000000pt" height="1161.000000pt" viewBox="0 0 1161.000000 1161.000000"
 preserveAspectRatio="xMidYMid meet">
<metadata>
Created by potrace 1.14, written by Peter Selinger 2001-2017
</metadata>
<g transform="translate(0.000000,1161.000000) scale(0.100000,-0.100000)"
fill="#000000" stroke="none">
<path d="M5609 11606 c-2 -2 -47 -6 -99 -10 -52 -3 -106 -8 -120 -10 -14 -3
-52 -7 -85 -11 -33 -3 -67 -8 -75 -10 -8 -2 -31 -6 -50 -9 -19 -3 -53 -8 -75
-11 -117 -18 -515 -120 -600 -154 -11 -5 -47 -18 -80 -30 -455 -168 -870 -403
-1235 -700 -150 -122 -420 -395 -542 -546 -244 -306 -443 -648 -585 -1008 -77
-195 -149 -438 -179 -602 -3 -16 -9 -48 -14 -70 -5 -22 -11 -60 -15 -85 -3
-25 -8 -52 -10 -60 -2 -8 -7 -44 -10 -80 -3 -36 -8 -81 -11 -100 -14 -93 -19
-443 -9 -560 5 -61 14 -156 20 -213 13 -116 49 -311 90 -477 94 -378 291 -810
545 -1190 97 -145 260 -409 405 -655 99 -168 141 -239 217 -375 115 -202 365
-364 598 -386 96 -9 4166 -9 4240 0 174 22 326 93 456 215 74 70 119 134 234
336 185 324 365 618 541 885 94 142 226 370 267 460 11 25 38 83 60 130 21 47
58 137 81 200 23 63 48 129 54 145 6 17 12 36 13 42 1 7 12 43 24 80 12 38 23
75 25 83 2 8 9 38 15 65 6 28 14 61 16 74 3 14 7 27 9 31 2 3 11 48 21 100 18
103 19 110 29 185 3 28 8 61 11 75 25 150 25 692 0 828 -2 9 -7 44 -11 77 -3
33 -11 83 -16 110 -5 28 -12 64 -15 80 -4 25 -44 201 -58 255 -97 377 -303
824 -534 1160 -36 52 -68 97 -72 100 -3 3 -14 18 -23 33 -10 16 -27 38 -37 50
-9 12 -55 67 -100 122 -105 128 -334 355 -473 470 -120 100 -323 246 -435 315
-40 25 -94 58 -120 74 -88 55 -387 202 -517 256 -186 75 -413 153 -547 185
-35 9 -70 17 -78 20 -21 5 -204 43 -265 55 -54 10 -107 18 -170 24 -60 7 -135
16 -180 21 -46 6 -521 16 -526 11z m466 -1400 c17 -3 44 -7 60 -10 17 -3 48
-8 70 -11 76 -11 300 -73 400 -110 278 -103 550 -263 773 -456 525 -454 835
-1135 836 -1834 1 -405 -79 -744 -262 -1115 -184 -372 -450 -677 -805 -920
-48 -33 -90 -60 -93 -60 -2 0 -21 -10 -42 -23 -208 -131 -561 -265 -792 -302
-176 -29 -273 -38 -395 -38 -94 -1 -264 10 -306 19 -13 2 -44 7 -69 10 -70 7
-280 61 -392 100 -354 123 -699 339 -948 593 -401 410 -633 910 -697 1506 -14
122 -6 466 12 550 2 11 7 36 9 55 36 251 152 587 282 812 285 498 671 838
1217 1073 61 26 304 105 345 111 20 3 40 8 43 10 4 2 24 6 45 9 22 4 46 8 54
11 8 2 35 6 60 9 25 3 70 10 100 14 56 8 440 6 495 -3z"/>
<path d="M3758 3547 c-78 -20 -84 -61 -28 -187 23 -52 63 -147 87 -210 25 -63
54 -133 65 -155 53 -102 168 -195 293 -235 l70 -23 1540 -1 c1226 -2 1553 1
1605 11 96 19 196 72 262 138 65 66 84 102 172 320 35 88 74 183 86 211 22 49
22 52 5 87 -9 20 -27 40 -38 44 -31 10 -4079 10 -4119 0z"/>
<path d="M4079 2136 c-4 -34 10 -130 27 -186 95 -319 444 -579 839 -628 81
-10 1665 -9 1735 1 463 66 823 385 856 757 l6 67 -1731 0 c-1255 0 -1731 -3
-1732 -11z"/>
<path d="M4646 742 l-39 -3 7 -66 c8 -80 45 -189 89 -262 118 -196 373 -358
628 -398 68 -10 887 -11 954 0 213 34 437 155 560 304 57 68 132 207 141 260
3 15 7 36 10 45 3 9 7 39 10 67 4 38 1 51 -8 51 -88 3 -2323 4 -2352 2z"/>
</g>
</svg>
